# AST/ASF file generated using VICON BodyLanguage
# -----------------------------------------------
:version 1.10
:name VICON
:units
  mass 1.0
  length 0.45
  angle deg
:documentation
   .ast/.asf automatically generated from VICON data using
   VICON BodyBuilder and BodyLanguage model FoxedUp or BRILLIANT.MOD
:root
   order TX TY TZ RX RY RZ
   axis XYZ
   position 0 0 0  
   orientation 0 0 0 
:bonedata
  begin
     id 1 
     name lhipjoint
     direction 0.521452 -0.77106 0.36545 
     length 2.0933 
     axis 0 0 0  XYZ
  end
  begin
     id 2 
     name lfemur
     direction 0.34202 -0.939693 0  
     length 6.83441  
     axis 0 0 20  XYZ
    dof rx ry rz
    limits (-160.0 20.0)
           (-70.0 70.0)
           (-60.0 70.0)
  end
  begin
     id 3 
     name ltibia
     direction 0.34202 -0.939693 0   
     length 7.28749   
     axis 0 0 20   XYZ
    dof rx
    limits (-10.0 170.0)
  end
  begin
     id 4 
     name lfoot
     direction 0.100608 -0.276418 0.955757   
     length 1.52195   
     axis -90 7.62852e-016 20   XYZ
    dof rx rz
    limits (-45.0 90.0)
           (-70.0 20.0)
  end
  begin
     id 5 
     name ltoes
     direction 1.53558e-011 -4.21907e-011 1   
     length 0.770459   
     axis -90 7.62852e-016 20   XYZ
    dof rx
    limits (-90.0 20.0)
  end
  begin
     id 6 
     name rhipjoint
     direction -0.488071 -0.788702 0.373812   
     length 2.04648  
     axis 0 0 0  XYZ 
  end
  begin
     id 7 
     name rfemur
     direction -0.34202 -0.939693 0   
     length 6.92583   
     axis 0 0 -20   XYZ
    dof rx ry rz
    limits (-160.0 20.0)
           (-70.0 70.0)
           (-70.0 60.0)
  end
  begin
     id 8 
     name rtibia
     direction -0.34202 -0.939693 0   
     length 7.41043   
     axis 0 0 -20   XYZ
    dof rx
    limits (-10.0 170.0)
 end
 begin
     id 9 
     name rfoot
     direction -0.0784433 -0.215521 0.973343   
     length 1.67708  
     axis -90 -7.62852e-016 -20   XYZ
    dof rx rz
    limits (-45.0 90.0)
           (-20.0 70.0)
  end
  begin
     id 10 
     name rtoes
     direction -1.53551e-011 -4.21842e-011 1   
     length 0.849787   
     axis -90 -7.62852e-016 -20   XYZ
    dof rx
    limits (-90.0 20.0)
  end
  begin
     id 11 
     name lowerback
     direction -0.0122332 0.997575 -0.0685192   
     length 1.98724   
     axis 0 0 0   XYZ
    dof rx ry rz
    limits (-20.0 45.0)
           (-30.0 30.0)
           (-30.0 30.0)
  end
  begin
     id 12 
     name upperback
     direction 0.0182347 0.999724 -0.0148421   
     length 1.99029   
     axis 0 0 0   XYZ
    dof rx ry rz
    limits (-20.0 45.0)
           (-30.0 30.0)
           (-30.0 30.0)
  end
  begin
     id 13 
     name thorax
     direction 0.0242908 0.99956 0.0170184   
     length 1.99573   
     axis 0 0 0   XYZ
    dof rx ry rz
    limits (-20.0 45.0)
           (-30.0 30.0)
           (-30.0 30.0)
  end
  begin
     id 14 
     name lowerneck
     direction 0.0654488 0.985533 0.156338   
     length 1.4285   
     axis 0 0 0   XYZ
    dof rx ry rz
    limits (-20.0 45.0)
           (-30.0 30.0)
           (-30.0 30.0)
  end
  begin
     id 15 
     name upperneck
     direction -0.02953 0.998556 -0.0448842   
     length 1.44709   
     axis 0 0 0   XYZ
    dof rx ry rz
    limits (-20.0 45.0)
           (-30.0 30.0)
           (-30.0 30.0)
  end
  begin
     id 16
     name head
     direction -0.0155588 0.999386 -0.0314063  
     length 1.44689  
     axis 0 0 0   XYZ
    dof rx ry rz
    limits (-20.0 45.0)
           (-30.0 30.0)
           (-30.0 30.0)
  end
  begin
     id 17 
     name lclavicle
     direction 0.968229 0.236071 -0.0824755  
     length 3.60593  
     axis 0 0 0   XYZ
    dof ry rz
    limits (-20.0 10.0)
           (0.0 20.0)
  end
  begin
     id 18 
     name lhumerus
     direction 1 -4.48968e-011 7.8138e-029   
     length 5.06035   
     axis 180 -30 -90   XYZ
    dof rx ry rz
    limits (-60.0 90.0)
           (-90.0 90.0)
           (-90.0 90.0)
  end
  begin
     id 19
     name lradius
     direction 1 -4.48967e-011 9.02887e-028   
     length 3.1478   
     axis 180 -30 -90   XYZ
    dof rx
    limits (-10.0 170.0)
  end
  begin
     id 20
     name lwrist
     direction 1 -4.48961e-011 7.20928e-028   
     length 1.5739   
     axis -5.52449e-016 90 90   XYZ
    dof ry
    limits (-180.0 0.0)
 end
  begin
     id 21 
     name lhand
     direction 1 -4.48972e-011 1.44186e-027   
     length 0.606747   
     axis -9.20027e-016 90 90   XYZ
    dof rx rz
    limits (-90.0 90.0)
           (-45.0 45.0)
  end
  begin
     id 22 
     name lfingers
     direction 1 -4.48943e-011 2.88371e-027   
     length 0.489175   
     axis -1.84005e-015 90 90   XYZ
    dof rx
    limits (0.0 90.0)
  end
  begin
     id 23
     name lthumb
     direction 0.707107 -6.34917e-011 0.707107   
     length 0.70236   
     axis -90 45 2.85299e-015   XYZ
    dof rx rz
    limits (-45.0 45.0)
           (-45.0 45.0)
  end
  begin
     id 24 
     name rclavicle
     direction -0.978165 0.207816 0.0022268   
     length 3.35425  
     axis 0 0 0   XYZ 
    dof ry rz
    limits (-10.0 20.0)
           (-20.0 0.0)
  end
  begin
     id 25 
     name rhumerus
     direction -1 -4.48964e-011 -4.02159e-027  
     length 5.12273   
     axis 180 30 90   XYZ
    dof rx ry rz
    limits (-90.0 60.0)
           (-90.0 90.0)
           (-90.0 90.0)
  end
  begin
     id 26 
     name rradius
     direction -1 -4.48966e-011 1.62746e-027   
     length 3.422   
     axis 180 30 90   XYZ
    dof rx
    limits (-10.0 170.0)
  end
  begin
     id 27 
     name rwrist
     direction -1 -4.4896e-011 7.20928e-028   
     length 1.711   
     axis -5.52449e-016 -90 -90   XYZ
    dof ry
    limits (-180.0 0.0)
  end
  begin
     id 28
     name rhand
     direction -1 -4.48979e-011 1.44186e-027   
     length 0.704599   
     axis -9.20027e-016 -90 -90   XYZ
    dof rx rz
    limits (-90.0 90.0)
           (-45.0 45.0)
  end
  begin
     id 29
     name rfingers
     direction -1 -4.48962e-011 2.88371e-027   
     length 0.568066   
     axis -1.84005e-015 -90 -90   XYZ
    dof rx
    limits (0.0 90.0)
  end
  begin
     id 30
     name rthumb
     direction -0.707107 -6.34949e-011 0.707107   
     length 0.815633   
     axis -90 -45 -2.85299e-015   XYZ
    dof rx rz
    limits (-45.0 45.0)
           (-45.0 45.0)
  end
:hierarchy
  begin
    root lhipjoint rhipjoint lowerback
    lhipjoint lfemur
    lfemur ltibia
    ltibia lfoot
    lfoot ltoes
    rhipjoint rfemur
    rfemur rtibia
    rtibia rfoot
    rfoot rtoes
    lowerback upperback
    upperback thorax
    thorax lowerneck lclavicle rclavicle
    lowerneck upperneck
    upperneck head
    lclavicle lhumerus
    lhumerus lradius
    lradius lwrist
    lwrist lhand lthumb
    lhand lfingers
    rclavicle rhumerus
    rhumerus rradius
    rradius rwrist
    rwrist rhand rthumb
    rhand rfingers
  end

#!OML:ASF Z:\Project 1\Capture day 1\Session 1\Male1.ASF
:FULLY-SPECIFIED
:DEGREES
667
root 12.9599 16.4305 -3.86756 -166.754 -15.7394 177.266
lowerback -5.36539 -4.10037 -1.87821
upperback 0.350709 -5.42258 1.79585
thorax 3.71279 -2.75699 2.42845
lowerneck -9.50527 -4.55005 -7.42369
upperneck 0.823128 -5.50765 4.8733
head 2.32588 -2.69784 2.62433
rclavicle 3.61788e-014 2.78299e-015
rhumerus 74.882 -3.45881 -55.6056
rradius 70.5536
rwrist 5.00323
rhand -39.8705 68.3619
rfingers 7.12502
rthumb -12.8429 38.777
lclavicle 3.61788e-014 2.78299e-015
lhumerus 84.3186 -5.73483 55.0929
lradius 29.9971
lwrist -23.5189
lhand -33.8692 60.079
lfingers 7.12502
lthumb -7.05332 449.941
rfemur -15.4981 -7.91519 23.2991
rtibia 21.3704
rfoot -18.7699 -11.004
rtoes 15.2193
lfemur 8.91089 -2.28922 -13.1177
ltibia 15.2653
lfoot 17.5679 20.0879
ltoes 56.7148
668
root 12.9644 16.4316 -3.87052 -166.635 -15.7328 177.302
lowerback -5.28343 -4.07564 -1.74954
upperback 0.379311 -5.39974 1.81131
thorax 3.6845 -2.74357 2.38025
lowerneck -9.32924 -4.63805 -7.63545
upperneck 0.669316 -5.616 4.9468
head 2.26069 -2.75308 2.68498
rclavicle 2.20651e-014 9.14409e-015
rhumerus 74.9758 -3.64798 -56.0422
rradius 72.6793
rwrist 4.29726
rhand -40.5582 69.1214
rfingers 7.12502
rthumb -13.5058 39.5794
lclavicle 2.20651e-014 9.14409e-015
lhumerus 84.3432 -5.49692 54.1072
lradius 30.6102
lwrist -22.1901
lhand -34.458 61.2605
lfingers 7.12502
lthumb -7.62167 628.897
rfemur -15.6143 -7.84314 23.3661
rtibia 21.395
rfoot -18.8213 -10.9275
rtoes 15.9349
lfemur 8.8298 -2.19028 -13.0311
ltibia 15.1645
lfoot 17.374 20.2857
ltoes 56.9769
669
root 12.969 16.4319 -3.87353 -166.458 -15.6703 177.235
lowerback -5.25068 -4.00233 -1.73973
upperback 0.404995 -5.30101 1.77619
thorax 3.6826 -2.69376 2.34931
lowerneck -9.40485 -4.64111 -8.33135
upperneck 1.03472 -5.54366 5.24643
head 2.43516 -2.71027 2.9216
rclavicle 1.22352e-013 -2.54444e-014
rhumerus 75.1719 -3.81155 -56.7458
rradius 74.623
rwrist 3.46754
rhand -41.0899 70.0296
rfingers 7.12502
rthumb -14.0183 40.5223
lclavicle 1.22352e-013 -2.54444e-014
lhumerus 84.5474 -5.44595 54.1647
lradius 30.7784
lwrist -22.0682
lhand -34.7703 61.3295
lfingers 7.12502
lthumb -7.92311 628.839
rfemur -15.8482 -7.79233 23.3485
rtibia 21.4456
rfoot -18.5096 -11.2879
rtoes 13.9043
lfemur 8.73597 -2.12422 -13.0975
ltibia 15.042
lfoot 17.3495 20.3764
ltoes 56.9703
670
root 12.9731 16.4322 -3.87562 -166.325 -15.6337 177.191
lowerback -5.16612 -3.90436 -1.72567
upperback 0.461134 -5.16921 1.72198
thorax 3.67922 -2.62734 2.30179
lowerneck -9.28643 -4.76024 -7.93582
upperneck 0.921766 -5.74352 4.9484
head 2.3594 -2.8165 2.73414
rclavicle -3.66758e-014 1.51076e-014
rhumerus 75.2682 -4.03978 -57.2062
rradius 76.6383
rwrist 2.14506
rhand -41.7288 70.877
rfingers 7.12502
rthumb -14.6339 41.4133
lclavicle -3.66758e-014 1.51076e-014
lhumerus 84.8442 -5.50283 54.47
lradius 30.9334
lwrist -22.2817
lhand -34.8701 61.2627
lfingers 7.12502
lthumb -8.01944 628.909
rfemur -16.0332 -7.68541 23.3331
rtibia 21.4859
rfoot -18.3288 -11.5641
rtoes 12.5682
lfemur 8.6767 -2.14152 -13.1573
ltibia 14.9313
lfoot 17.3706 20.4237
ltoes 57.0043
671
root 12.9799 16.4347 -3.87778 -166.18 -15.6537 177.127
lowerback -5.06995 -3.90265 -1.67384
upperback 0.509102 -5.16701 1.64341
thorax 3.66269 -2.624 2.19742
lowerneck -9.17795 -4.77756 -7.99615
upperneck 0.745134 -5.76831 4.90439
head 2.2819 -2.83238 2.73073
rclavicle -3.99557e-014 3.18055e-015
rhumerus 75.3832 -4.15186 -57.5423
rradius 78.7471
rwrist 0.403124
rhand -42.1781 71.7047
rfingers 7.12502
rthumb -15.0668 42.273
lclavicle -3.99557e-014 3.18055e-015
lhumerus 84.901 -5.23243 53.8876
lradius 31.4688
lwrist -21.7028
lhand -34.8657 61.6564
lfingers 7.12502
lthumb -8.01515 628.516
rfemur -16.0981 -7.10187 23.1784
rtibia 21.5271
rfoot -18.889 -11.1753
rtoes 17.1414
lfemur 8.58295 -2.16765 -13.1921
ltibia 14.8083
lfoot 17.4163 20.4613
ltoes 57.1532
672
root 12.9851 16.4356 -3.88171 -166 -15.6432 177.018
lowerback -5.01744 -3.89065 -1.66039
upperback 0.53795 -5.14763 1.55175
thorax 3.65218 -2.61254 2.10013
lowerneck -9.14192 -4.83065 -8.13999
upperneck 0.695903 -5.8295 4.97451
head 2.27219 -2.86258 2.7785
rclavicle -5.09883e-014 1.35174e-014
rhumerus 75.5014 -4.25301 -58.0014
rradius 80.8354
rwrist -1.36029
rhand -42.0262 72.4906
rfingers 7.12502
rthumb -14.9204 43.0479
lclavicle -5.09883e-014 1.35174e-014
lhumerus 85 -5.00555 53.5088
lradius 31.8724
lwrist -21.3112
lhand -34.8427 61.9937
lfingers 7.12502
lthumb -7.99293 628.177
rfemur -16.3573 -7.34197 23.1996
rtibia 21.5497
rfoot -18.3045 -11.8108
rtoes 13.4404
lfemur 8.45926 -2.14992 -13.2822
ltibia 14.7107
lfoot 17.5554 20.3803
ltoes 56.9218
673
root 12.9896 16.438 -3.8847 -165.812 -15.5995 176.973
lowerback -4.93588 -3.77307 -1.67076
upperback 0.527439 -4.98964 1.52539
thorax 3.58554 -2.53331 2.09902
lowerneck -9.1119 -5.01948 -8.13782
upperneck 0.721683 -6.0853 5.05408
head 2.29725 -2.98766 2.79006
rclavicle 1.31198e-014 -1.51076e-014
rhumerus 75.4892 -4.41852 -58.3557
rradius 82.8229
rwrist -2.93921
rhand -41.6795 73.3962
rfingers 7.12502
rthumb -14.5864 43.9291
lclavicle 1.31198e-014 -1.51076e-014
lhumerus 85.3022 -5.07916 53.7166
lradius 32.0328
lwrist -21.349
lhand -34.8749 62.1033
lfingers 7.12502
lthumb -8.02404 628.069
rfemur -16.5555 -7.28347 23.1909
rtibia 21.5484
rfoot -18.1568 -11.9216
rtoes 12.9543
lfemur 8.2996 -2.13431 -13.325
ltibia 14.6571
lfoot 17.6059 20.3418
ltoes 56.6448
674
root 12.9963 16.441 -3.88572 -165.634 -15.5898 176.954
lowerback -4.81926 -3.73876 -1.71083
upperback 0.528986 -4.94477 1.571
thorax 3.5268 -2.51226 2.17993
lowerneck -9.15793 -5.09165 -8.95907
upperneck 0.787051 -6.10611 5.51106
head 2.38761 -2.9908 3.09999
rclavicle 6.44062e-014 -2.10712e-014
rhumerus 75.6537 -4.32927 -58.687
rradius 84.7325
rwrist -4.50285
rhand -41.3823 74.2668
rfingers 7.12502
rthumb -14.3 44.7792
lclavicle 6.44062e-014 -2.10712e-014
lhumerus 85.4489 -4.91254 53.7503
lradius 32.2709
lwrist -21.2
lhand -34.9266 62.2676
lfingers 7.12502
lthumb -8.07389 627.907
rfemur -16.7316 -7.22716 23.2151
rtibia 21.5011
rfoot -18.0197 -11.9373
rtoes 12.6102
lfemur 8.10294 -2.08616 -13.3109
ltibia 14.6648
lfoot 17.7405 20.2283
ltoes 56.7173
675
root 13.002 16.4445 -3.88643 -165.486 -15.6379 176.943
lowerback -4.7042 -3.69501 -1.61972
upperback 0.577094 -4.89006 1.50692
thorax 3.49548 -2.48244 2.07427
lowerneck -9.12985 -5.10427 -8.57863
upperneck 0.551191 -6.15913 5.19642
head 2.27436 -3.0252 2.91692
rclavicle -5.1684e-015 1.11319e-014
rhumerus 75.8759 -4.1672 -59.4354
rradius 86.5186
rwrist -5.79328
rhand -41.0876 74.7452
rfingers 7.12502
rthumb -14.016 45.2378
lclavicle -5.1684e-015 1.11319e-014
lhumerus 85.7344 -4.82404 53.8065
lradius 32.3996
lwrist -21.1847
lhand -34.9733 62.1749
lfingers 7.12502
lthumb -8.11899 628.001
rfemur -16.8626 -7.14006 23.2448
rtibia 21.4428
rfoot -17.9822 -11.972
rtoes 12.9055
lfemur 7.91758 -2.02866 -13.254
ltibia 14.677
lfoot 17.9764 20.0011
ltoes 56.7166
676
root 13.0066 16.4467 -3.88635 -165.391 -15.7223 176.994
lowerback -4.54841 -3.65493 -1.33576
upperback 0.610587 -4.84799 1.36209
thorax 3.40364 -2.45366 1.78114
lowerneck -8.94648 -5.11591 -8.15667
upperneck 0.263356 -6.22884 4.96886
head 2.11925 -3.06634 2.75984
rclavicle 6.95746e-015 -1.15295e-014
rhumerus 75.8 -4.45859 -59.422
rradius 88.4521
rwrist -7.63365
rhand -41.0226 75.1429
rfingers 7.12502
rthumb -13.9534 45.6312
lclavicle 6.95746e-015 -1.15295e-014
lhumerus 86.0789 -4.81202 53.8145
lradius 32.3968
lwrist -21.2623
lhand -35.0504 62.0343
lfingers 7.12502
lthumb -8.19342 628.145
rfemur -16.9545 -6.92401 23.321
rtibia 21.4077
rfoot -17.9689 -12.1309
rtoes 13.621
lfemur 7.76851 -2.07364 -13.1254
ltibia 14.6667
lfoot 18.0006 19.958
ltoes 56.6583
